<?xml version="1.0" encoding="iso-8859-1"?>
<!DOCTYPE svg PUBLIC "-//W3C//DTD SVG 1.1//EN" "http://www.w3.org/Graphics/SVG/1.1/DTD/svg11.dtd">
<svg version="1.1" xmlns="http://www.w3.org/2000/svg"
	 width="20px" height="20px" viewBox="0 0 493.763 493.763" style="enable-background:new 0 0 493.763 493.763;"
	 xml:space="preserve">
	<g>
		<path d="M219.267,235.448c-15.23,15.23-15.23,39.924,0,55.155c15.229,15.229,39.924,15.229,55.155,0
			c15.229-15.23,15.229-39.925,0-55.155C259.191,220.218,234.496,220.217,219.267,235.448z M273.361,261.964
			c-3.163,3.163-11.426,0.028-18.455-7.001c-7.03-7.028-10.163-15.292-7.001-18.455c3.163-3.163,11.426-0.028,18.455,7.001
			C273.39,250.539,276.524,258.801,273.361,261.964z"/>
		<path d="M493.618,280.299c-2.499-3.59-4.943-7.217-7.416-10.825c-11.234-16.395-24.361-31.432-38.634-45.25
			c-18.247-17.668-38.232-33.562-59.815-46.977c-21.725-13.503-44.939-24.555-69.36-32.229
			c-20.185-6.343-41.121-10.143-62.259-11.08c-19.646-0.87-39.361,1.082-58.568,5.226c-25.07,5.41-49.316,14.792-71.924,26.844
			c-22.479,11.984-43.529,26.554-62.86,43.136c-9.581,8.219-18.742,16.945-27.403,26.127c-8.199,8.692-16.095,17.792-23.099,27.482
			c-2.513,3.477-4.929,7.017-7.358,10.551c-1.583,2.305-3.196,4.588-4.749,6.911c-0.308,0.46-0.209,0.493,0.341,0.936
			c1.125,0.904,2.251,1.811,3.376,2.716c4.019,3.231,7.868,6.657,11.876,9.902c10.058,8.143,20.533,15.773,31.28,22.979
			c21.353,14.315,43.874,26.92,67.405,37.287c4.774,2.104,9.615,4.03,14.447,5.994c-10.817-6.859-21.424-13.953-31.621-21.716
			c-10.308-7.848-20.254-16.162-29.828-24.89c-11.343-10.34-22.193-21.244-32.37-32.735c19.287-12.559,38.938-24.542,59.188-35.491
			c19.651-10.624,39.85-20.042,60.676-28.12c4.186-1.624,8.418-3.162,12.689-4.611c-9.357,14.609-14.787,31.962-14.787,50.561
			c0,51.832,42.168,94,94,94c51.833,0,94-42.168,94-94c0-18.5-5.375-35.767-14.641-50.327c5.421,1.832,10.797,3.792,16.121,5.865
			c24.207,9.427,47.465,21.143,70.049,33.943c15.688,8.894,31.021,18.39,46.147,28.207c-17.028,19.229-35.871,36.935-56.022,52.855
			c-12.084,9.547-24.713,18.213-37.709,26.459c11.85-4.81,23.533-9.886,34.938-15.685c11.521-5.855,22.777-12.227,33.75-19.054
			c17.941-11.164,35.457-23.409,51.418-37.288c1.821-1.584,3.69-3.093,5.572-4.606c0.949-0.766,1.9-1.529,2.85-2.294
			C493.79,280.724,493.88,280.675,493.618,280.299z M246.844,327.026c-35.29,0-64-28.71-64-64c0-35.291,28.71-64,64-64
			c35.291,0,64,28.71,64,64C310.845,298.316,282.135,327.026,246.844,327.026z"/>
	</g>
</svg>